<svg width="9" height="12" viewBox="0 0 9 12" fill="none" xmlns="http://www.w3.org/2000/svg">
<path d="M1.37986 1C1.10067 1.05238 1.02478 1.14363 1.0017 1.39053V2.49704V2.7574C0.995263 2.85126 1.00473 2.89803 1.07251 2.9607L1.37986 3.27811L2.07315 3.99408C2.22083 4.16435 2.30355 4.13894 2.45131 3.99408L2.89249 3.53846C3.02692 3.41135 3.05494 3.34015 2.89249 3.21302L2.29374 2.64854C2.16017 2.52033 2.19911 2.49437 2.38828 2.49704H6.57953C6.70558 2.49704 6.7371 2.52959 6.64256 2.61753C6.55855 2.69567 3.90091 5.23796 3.90091 5.23796C3.83644 5.29329 3.81095 5.34045 3.80637 5.45858V9.94971C3.80637 10.0473 3.83789 10.0799 3.93243 10.0799H5.03539C5.12993 10.0799 5.16144 10.0473 5.16144 9.94971V5.94675C5.16563 5.8392 5.1882 5.79014 5.25598 5.71894L7.9346 2.95266C7.98385 2.89851 7.99803 2.86277 7.99762 2.78994V1.39053C8.01235 1.11931 7.96703 1.0064 7.61947 1H1.37986Z" fill="white" stroke="#2C2928" stroke-width="0.25"/>
<path d="M5.09949 11.284C5.09949 11.6142 4.8413 11.8749 4.5312 11.8749C4.22111 11.8749 3.96291 11.6142 3.96291 11.284C3.96291 10.9538 4.22111 10.693 4.5312 10.693C4.8413 10.693 5.09949 10.9538 5.09949 11.284Z" fill="white" stroke="#2C2928" stroke-width="0.25"/>
</svg>
