<svg width="55" height="46" viewBox="0 0 55 46" fill="none" xmlns="http://www.w3.org/2000/svg">
<path d="M42.327 6.57865C44.9983 11.4639 42.2768 13.5073 34.3525 13.0392M42.327 6.57865L34.3525 13.0392M42.327 6.57865C42.3421 6.53973 42.3571 6.50103 42.372 6.46254C43.4801 3.60495 44.1152 1.96731 45.9909 1.10568C48.4723 0.647072 49.8297 1.69711 52.2412 3.94352C54.5173 8.92814 54.3347 11.1888 53.1033 14.8895C50.5982 19.617 48.2911 21.7323 42.327 24.4165C39.512 25.1435 37.8288 25.2943 34.3525 24.4165C29.2394 21.8259 27.2543 20.3668 28.5333 17.7273C29.6392 16.2044 31.7773 14.81 34.3525 13.0392" stroke="black" stroke-width="2" stroke-linejoin="round"/>
<path d="M18.3499 18.0181L22.1216 23.3897C23.6536 25.3495 24.679 26.4756 26.001 27.6113M18.3499 18.0181L14.5782 12.6465C11.322 9.19394 9.59313 9.2878 6.60368 11.4303C2.98731 14.1775 2.12977 16.6449 1 21.3627C1.03497 26.809 2.41759 29.773 6.60368 34.9438C11.4982 39.0216 14.5846 40.4071 20.6129 41.4302C26.6495 41.3824 28.7907 40.3985 30.9582 37.3762C32.4186 34.3191 32.5239 33.0909 31.8203 31.4978C30.1915 30.3463 29.198 29.727 27.2942 28.66C26.8219 28.2943 26.3981 27.9524 26.001 27.6113M18.3499 18.0181C15.9517 25.7678 15.7431 29.2676 26.001 27.6113" stroke="black" stroke-width="2" stroke-linejoin="round"/>
</svg>
