<svg width="55" height="54" viewBox="0 0 55 54" fill="none" xmlns="http://www.w3.org/2000/svg">
<path d="M42.327 7.57042C44.9983 13.3241 42.2768 15.7308 34.3525 15.1795M42.327 7.57042L34.3525 15.1795M42.327 7.57042C42.3421 7.52457 42.3571 7.47899 42.372 7.43366C43.4801 4.06805 44.1152 2.13928 45.9909 1.12447C48.4723 0.58433 49.8297 1.82104 52.2412 4.46681C54.5173 10.3376 54.3347 13.0001 53.1033 17.3587C50.5982 22.9267 48.2911 25.418 42.327 28.5794C39.512 29.4356 37.8288 29.6133 34.3525 28.5794C29.2394 25.5282 27.2543 23.8098 28.5333 20.701C29.6392 18.9074 31.7773 17.2652 34.3525 15.1795" stroke="black" stroke-width="2" stroke-linejoin="round"/>
<path d="M18.3499 21.0435L22.1216 27.3701C23.6536 29.6783 24.679 31.0046 26.001 32.3422M18.3499 21.0435L14.5782 14.7169C11.322 10.6506 9.59313 10.7612 6.60368 13.2845C2.98731 16.5201 2.12977 19.4262 1 24.9827C1.03497 31.3972 2.41759 34.8881 6.60368 40.9782C11.4982 45.781 14.5846 47.4127 20.6129 48.6178C26.6495 48.5615 28.7907 47.4027 30.9582 43.8431C32.4186 40.2424 32.5239 38.7959 31.8203 36.9196C30.1915 35.5634 29.198 34.834 27.2942 33.5773C26.8219 33.1466 26.3981 32.7439 26.001 32.3422M18.3499 21.0435C15.9517 30.171 15.7431 34.293 26.001 32.3422" stroke="black" stroke-width="2" stroke-linejoin="round"/>
</svg>
