<svg width="12" height="12" viewBox="0 0 12 12" fill="none" xmlns="http://www.w3.org/2000/svg">
<circle cx="6" cy="6" r="5.875" fill="white" stroke="black" stroke-width="0.25"/>
<path d="M6.05943 8.97033L3.56438 11.4654C3.32853 11.3668 3.20357 11.3024 2.97032 11.1684L3.14854 9.50499L2.97032 8.79212L2.25745 7.84162V7.24756L2.7921 6.71291L1.90101 5.76241H1.7228L1.24755 5.28717L0.950519 5.40598L0.712895 4.97626V5.40598H0.534677L0.118835 4.87132L0.356459 3.98023C0.592569 3.27273 0.785231 2.91843 1.24755 2.37627C1.69396 1.72736 1.99472 1.42926 2.61388 1.00994C3.22187 0.668554 3.56741 0.493206 4.21784 0.297066C4.61532 0.143281 4.85813 0.0839022 5.34656 0.0594426C5.83227 0.0127799 6.14937 0.0153178 6.7723 0.0594426C7.37914 0.147202 7.70675 0.234374 8.25745 0.475284L8.13864 1.6634L7.30695 2.01984L6.89111 2.55449L6.59408 2.79212L6.05943 2.37627L5.82181 1.78221L5.94062 0.83172L5.46537 0.475284L5.34656 0.297066L4.09903 0.712908L3.98022 1.12875L3.32676 1.90103L3.98022 2.01984H4.57428L5.16834 3.20796L3.68319 4.33667L3.14854 4.69311L3.56438 5.28717L3.32676 5.40598L2.7921 4.87132L1.90101 5.04954L2.13864 5.40598H2.43567L2.97032 6.29707H4.21784L5.16834 7.06934V7.42578L6.47527 7.84162L6.05943 8.97033Z" fill="#2C2828"/>
<path d="M9.26735 8.13865V10.9901C9.70934 10.7184 9.93282 10.536 10.2773 10.1585C10.6729 9.78613 10.846 9.54642 11.1089 9.08914C11.4806 8.44367 11.6696 8.08425 11.8218 7.42578C11.9656 6.8009 11.9956 6.43369 12 5.76241L10.4555 6.17825L9.92082 5.40598L8.25745 5.70301L8.13864 6.17825L7.60398 6.83172L7.48517 7.42578L8.01982 8.13865H9.26735Z" fill="#2C2828"/>
<path d="M10.9307 3.74261L11.4654 3.56439L11.7624 4.39608L11.9406 5.22776L11.2277 5.40598L10.9307 4.69311H10.8119L10.9307 5.40598H10.6337L10.2773 4.87132L9.92082 4.69311L8.25745 5.28717L8.13864 5.04954L8.49507 4.57429L8.25745 4.33667L8.55448 4.15845H8.91091L9.7426 3.20796H10.2773L10.9307 3.74261Z" fill="#2C2828"/>
</svg>
