<svg width="9" height="12" viewBox="0 0 9 12" fill="none" xmlns="http://www.w3.org/2000/svg">
<path d="M5.46841 1L8 3.81182V10.607C7.98458 10.8773 7.93822 10.9927 7.64839 10.9976H1.31942C1.05891 11.0155 0.983241 10.9387 1.00297 10.607V1.31242C1.04229 1.07213 1.1123 1.00179 1.31942 1H5.46841Z" fill="white"/>
<path d="M8 3.81182L5.46841 1M8 3.81182V10.607C7.98458 10.8773 7.93822 10.9927 7.64839 10.9976H1.31942C1.05891 11.0155 0.983241 10.9387 1.00297 10.607V1.31242C1.04229 1.07213 1.1123 1.00179 1.31942 1H5.46841M8 3.81182H5.78486C5.53872 3.81182 5.4613 3.80807 5.46841 3.49939V1" stroke="#2C2828" stroke-width="0.25" stroke-linejoin="round"/>
<path d="M5.52088 3.59335V1L8.00005 3.78689H5.72748C5.58975 3.78689 5.54442 3.74853 5.52088 3.59335Z" fill="#2C2828" fill-opacity="0.84" stroke="#2C2828" stroke-width="0.1"/>
<path d="M2.02092 2.47534H5.06759M2.02092 3.61813H5.06759M2.02092 4.84883H7.12509M2.02092 6.12348H7.12509M2.02092 7.35417H7.12509M2.02092 8.54091H7.12509" stroke="#2C2828" stroke-width="0.25"/>
</svg>
