<svg width="33" height="42" viewBox="0 0 33 42" fill="none" xmlns="http://www.w3.org/2000/svg">
<path d="M2 38V12C2.20506 10.5045 2.65409 10.0698 4 10H29C30.5715 10.1538 31.1911 10.601 31.5 12.5V38C31.1566 39.7586 30.6025 40.2839 29 40.5H4.5C2.93857 40.4535 2.42138 39.8582 2 38Z" stroke="#D6352D" stroke-width="2.5"/>
<path fill-rule="evenodd" clip-rule="evenodd" d="M15.5 1C12.4624 1 10 3.46244 10 6.5V17.5455H11.9093L11.9091 17.5454V6.40907C11.9091 4.47607 13.4761 2.90907 15.4091 2.90907H18.5909C20.5239 2.90907 22.0909 4.47607 22.0909 6.40907V17.5454L22.0906 17.5455H24V6.5C24 3.46243 21.5376 1 18.5 1H15.5Z" fill="#D6352D"/>
<path d="M10 17.5455H9.5C9.5 17.8216 9.72386 18.0455 10 18.0455V17.5455ZM11.9093 17.5455V18.0455C12.1768 18.0455 12.3969 17.8349 12.4088 17.5677C12.4208 17.3005 12.2202 17.0712 11.9538 17.0474L11.9093 17.5455ZM11.9091 17.5454H11.4091C11.4091 17.8043 11.6067 18.0204 11.8646 18.0434L11.9091 17.5454ZM22.0909 17.5454L22.1354 18.0434C22.3933 18.0204 22.5909 17.8043 22.5909 17.5454H22.0909ZM22.0906 17.5455L22.0461 17.0474C21.7797 17.0712 21.5792 17.3005 21.5911 17.5677C21.603 17.8349 21.8231 18.0455 22.0906 18.0455V17.5455ZM24 17.5455V18.0455C24.2761 18.0455 24.5 17.8216 24.5 17.5455H24ZM10.5 6.5C10.5 3.73858 12.7386 1.5 15.5 1.5V0.5C12.1863 0.5 9.5 3.1863 9.5 6.5H10.5ZM10.5 17.5455V6.5H9.5V17.5455H10.5ZM11.9093 17.0455H10V18.0455H11.9093V17.0455ZM11.9538 17.0474L11.9535 17.0474L11.8646 18.0434L11.8649 18.0435L11.9538 17.0474ZM12.4091 17.5454V6.40907H11.4091V17.5454H12.4091ZM12.4091 6.40907C12.4091 4.75221 13.7522 3.40907 15.4091 3.40907V2.40907C13.1999 2.40907 11.4091 4.19993 11.4091 6.40907H12.4091ZM15.4091 3.40907H18.5909V2.40907H15.4091V3.40907ZM18.5909 3.40907C20.2477 3.40907 21.5909 4.75221 21.5909 6.40907H22.5909C22.5909 4.19993 20.8 2.40907 18.5909 2.40907V3.40907ZM21.5909 6.40907V17.5454H22.5909V6.40907H21.5909ZM22.0464 17.0474L22.0461 17.0474L22.1351 18.0435L22.1354 18.0434L22.0464 17.0474ZM24 17.0455H22.0906V18.0455H24V17.0455ZM23.5 6.5V17.5455H24.5V6.5H23.5ZM18.5 1.5C21.2614 1.5 23.5 3.73858 23.5 6.5H24.5C24.5 3.18629 21.8137 0.5 18.5 0.5V1.5ZM15.5 1.5H18.5V0.5H15.5V1.5Z" fill="#D6352D"/>
</svg>
