<svg width="36" height="30" viewBox="0 0 36 30" fill="none" xmlns="http://www.w3.org/2000/svg">
<path d="M7.1277 29.8319C4.87286 29.7564 3.09351 27.9311 0.0608533 25.8346C-0.481893 25.1968 2.68935 25.181 6.24438 24.9463C8.7033 24.372 9.71311 23.9891 10.6612 23.1697C8.99432 22.9459 8.07685 22.917 6.24438 21.8372C3.71962 19.3168 2.71857 18.1521 3.15261 17.3958C4.7736 17.7565 5.34005 17.7955 5.36101 17.3958C3.62348 16.5972 2.71873 16.1051 1.82757 14.7309C1.11153 11.882 0.881702 10.579 1.38589 9.84524C1.58379 9.25675 3.23145 10.775 5.36101 12.5101C3.05277 10.5657 1.9993 9.376 1.38589 6.7362C1.45251 4.64451 2.26925 1.85057 2.71093 1.40642C3.15261 0.962275 4.47765 2.29472 6.24438 4.07131C8.0111 5.84791 10.6612 7.18028 12.8696 8.06861C15.078 8.95694 16.1174 9.09246 17.7281 8.95694C16.7874 8.53683 16.4336 8.11972 16.403 6.7362C17.351 4.36591 18.0902 3.17503 19.9365 1.40642C22.2477 -0.035615 23.6444 -0.434819 26.5617 0.518127L30.0951 2.29472L34.0702 0.518127C34.8998 0.456642 35.128 0.63414 34.9536 1.40642L31.4201 5.40376L35.8369 4.07131C36.5298 3.98449 34.9513 5.82844 32.3035 8.95694C32.3834 11.0855 32.1574 12.4442 31.4201 15.175C30.4028 18.9256 29.4244 20.8975 26.5617 24.058C24.278 26.6253 21.9347 27.2155 18.1089 28.8696C16.6768 29.4385 13.906 30.3866 7.1277 29.8319Z" fill="#2C2828"/>
</svg>
