<svg width="56" height="52" viewBox="0 0 56 52" fill="none" xmlns="http://www.w3.org/2000/svg">
<path d="M20.7927 47.8009L9.35164 36.1727C1.10089 35.592 -1.39258 33.9984 3.47651 25.6155C1.12716 21.1495 1.6344 19.0461 7.03251 16.2824C10.3565 9.29973 12.8624 9.17281 18.3189 14.9053C21.7158 14.7873 22.9695 15.3904 24.1941 17.5064M22.0296 43.9758C21.8514 43.6658 21.6768 43.3599 21.5056 43.0578M12.1346 18.5774C12.7469 21.1876 13.3369 23.4917 13.9547 25.6155M13.9547 25.6155C15.9947 23.6489 16.7606 22.3651 17.2367 19.6484M13.9547 25.6155C14.474 27.4009 15.0131 29.059 15.6016 30.6646M15.6016 30.6646C12.3463 29.7096 10.7525 28.589 8.424 25.6155M15.6016 30.6646C15.962 31.6476 16.3409 32.6109 16.7452 33.5716M16.7452 33.5716C18.5275 32.0851 19.2643 31.3117 20.0196 30.0526M16.7452 33.5716C17.5664 35.5231 18.4925 37.4641 19.5809 39.5387M19.5809 39.5387C17.5782 39.3075 16.3336 38.8692 13.9547 37.7027M19.5809 39.5387C20.1716 40.6647 20.8101 41.8301 21.5056 43.0578M21.5056 43.0578L22.0296 38.6207" stroke="black" stroke-width="2" stroke-linecap="round"/>
<path d="M24.0395 50.1567C23.5735 49.8182 23.3273 49.2046 23.2665 48.1069C25.4375 44.5672 26.1832 42.6353 27.1317 39.2327C27.4494 35.0281 27.3205 33.4662 26.204 32.9596C20.6335 27.4816 19.5553 24.6664 26.204 20.7194C27.0791 15.8885 28.7177 14.7124 33.4706 15.0583C38.6154 9.27718 41.5622 9.93495 44.4478 16.8944C49.2473 18.7787 50.0284 20.8748 48.4677 26.2275C52.8784 33.6152 49.9455 35.3306 41.8195 37.0907C35.9625 43.4644 32.5862 46.6137 26.204 50.5549C25.2265 50.5615 24.5174 50.5038 24.0395 50.1567ZM24.0395 50.1567C26.3351 47.7097 28.2916 45.4596 29.9793 43.2108M39.6549 18.5774C39.1049 21.5883 38.5176 24.2617 37.8612 26.6865M37.8612 26.6865C35.3395 24.1398 34.3088 22.6426 34.2436 19.6484M37.8612 26.6865C37.5273 27.92 37.1755 29.0891 36.8016 30.2056M36.8016 30.2056C39.511 29.5652 40.8808 28.6788 42.9017 25.6155M36.8016 30.2056C36.2941 31.7209 35.746 33.1392 35.1467 34.4897M35.1467 34.4897C32.4289 31.9627 31.5946 30.4289 31.3061 27.4515M35.1467 34.4897C34.4074 36.1556 33.5902 37.7183 32.6755 39.2327M32.6755 39.2327C34.8682 39.3342 35.8939 39.2089 36.8016 38.1617M32.6755 39.2327C31.8591 40.5843 30.9651 41.8973 29.9793 43.2108M29.9793 43.2108L29.76 38.4677" stroke="black" stroke-width="2" stroke-linecap="round"/>
<path d="M14.4537 8.63223C16.3766 5.76844 17.7728 5.30749 20.4835 5.26618C24.7434 0.0958147 27.4451 0.000633149 31.6153 6.03119C35.3266 6.13578 35.934 7.00402 36.872 8.63223M25.7402 14.4463V12.4573M25.7402 5.26618V11.0803M25.7402 12.4573L29.4508 10.1623M25.7402 12.4573V11.0803M25.7402 11.0803L22.1842 7.71421" stroke="black" stroke-width="2" stroke-linecap="round"/>
</svg>
